<?xml version="1.0" encoding="utf-8"?>
<!-- Generator: Adobe Illustrator 19.1.0, SVG Export Plug-In . SVG Version: 6.00 Build 0)  -->
<svg version="1.1" id="Layer_1" xmlns="http://www.w3.org/2000/svg" xmlns:xlink="http://www.w3.org/1999/xlink" x="0px" y="0px"
	 viewBox="-92 291.8 426.3 211.2" style="enable-background:new -92 291.8 426.3 211.2;" xml:space="preserve">
<style type="text/css">
	.st0{fill:#4AB3E6;}
	.st1{fill:#FFFFFF;stroke:#10487B;stroke-width:2;stroke-miterlimit:10;}
</style>
<path class="st0" d="M-50.3,306C-50.3,306-50.2,306-50.3,306C-50.2,305.9-50.3,305.9-50.3,306z M51.1,424.4c0,0-1.9-0.4-2-0.6
	c-0.1-0.2-3.3-3.1-3.4-3c-0.1,0.1-1.4-1.3-1.5-0.9c-0.2,0.4-2.6,0.4-2.6,0.4l-2.6-0.6c0,0-1.1,0.8-0.9,0.5c0.2-0.3,0.1-2.2,0-1.9
	c-0.1,0.3-4-1.7-4-1.7l-1.4,1.2v-1.5l-2.1-1.3l0.2-1.7l-1-0.8c0,0-0.2,0.2-0.2,0.1c-0.1-0.2-0.6-3.3-0.6-3.3l-3-2.5l-3.7-0.2
	l-3.3-1.8l-0.7-1.7c0,0-1.9-0.9-1.9-1.1c0-0.2-0.6-0.1-0.7-0.2c-0.2-0.1-0.1-0.9-0.1-0.9l-0.9-0.7l-0.3-0.2l-0.8-0.2l-0.5-0.7
	c0,0,1.7-0.8,1.6-0.7c-0.2,0.1-3.9,0.6-3.9,0.6l-0.4,0.7l-1.7-0.9l-2.9-0.2c0,0-2.1-0.8-2-1.1c0.1-0.2-0.7-1.1-0.7-1.1
	s-0.5,1.1-0.6,1.3c-0.1,0.1-1.6,1.4-1.6,1.4l0.1,1.9l-1-1.1l0.7-1c0,0,0-1.3,0-1.4c0-0.2,0.9-0.6,0.9-0.6L1.2,396
	c0,0-1.1,0.3-1.1,0.5c0,0.2-1.4,1-1.4,1l-1.7,0.7h-0.8c0,0-0.8,1.3-1,1.3c-0.2,0.1-0.1,1.2-0.1,1.2s-1.9,2.1-2,1.9
	c-0.1-0.2-2.1-1.9-2.1-1.9l-2.4,0.3l-1.4,0.7l-1.7-1.1l-1.3-2l0.1-2.4l0.7-2.6l0.3-1.7l-1.8-1.3c0,0-3.6,0.3-3.6,0.1
	c0-0.2-2,0.1-1.9-0.1c0.1-0.2,0.7-1.3,0.7-1.5c0-0.2,0.5-1.6,0.5-1.6l0.8-1.6l1-3l0.6-1l-3-0.2l-1.8,0.7l-1,3l-5.1,1.4l-1.3-1
	c0,0-0.1,0.5-0.1,0.2c0.1-0.3-1.6-2.4-1.6-2.4l-0.8-2.9c0,0,2-6,2-5.9c-0.1,0.1,0.1-2.2,0.1-2.2l6.4-4.2l2.4,0.4l0.6,0.6l1.5-0.2
	l1.5-1.5l1.9,0.2l1.8-0.4l1.1,1.3l1.7-0.7l0.9,1l0.5,0.6v1l-0.4,1l0.4,2.2l1.2,1.7l0.8,0.3l1-2.6l-0.2-2.5l-0.4-2v-1.4l2.5-3
	l3.2-2.3l2.5-1.4l2.2-2.4L2,355.9l1-0.2l0.9-2l1,0.1l1.9-2.3l3.1-1.1l1.9-0.4l0.6-0.7l-0.7-0.6l1.5-2.2l4.7-1.9l2.9-0.8l-2.3,1.5
	l0.5,1.1l1.7-0.5l1.3-0.8l3.3-0.9c0,0,0.8-1.3,0.7-1c-0.1,0.3,1.7-0.3,1.7-0.3l-0.4-0.7l0.1-1l-1,0.4l-1.4,1.6l-2.3-0.1l-1.1-1.6
	l1-1.4c0,0,1-2,1-1.9c-0.1,0.1-1.6-0.5-1.6-0.5l-2.3,0.8c-0.2,0-2.4,1.3-2.4,1.1c0.1-0.2-1.1,0.7-1.1,0.7l3-2.4l1.3-0.2l1.4-1.3h6.9
	l2.3-0.5l3.1-1.7l0.2,0.3l-1.3,1.3l-1.6,1.7l-1.6,1.7l-0.8,1l2.4,0.1c0,0,1.9,0,2.1,0c0.2-0.1,0.3,0.8,0.3,0.8l1-0.7l0.5,1.4
	l1.8-1.4l-0.5-1.6l0.5-1.4l-2.1,0.1v-0.8c0,0-0.8-0.9-0.8-0.8c-0.1,0.1,1.2-1,1.1-0.9c-0.1,0.1-0.5-0.6-0.5-0.6l1.4-1.8l-0.7-2
	l-0.2-1l-1.9-0.9l-0.7-0.9l-0.8-0.7l0.7-1.6l-0.3-1.1c0,0-0.5-3.7-0.6-3.6c-0.1,0.1-2.5,2-2.5,2l-2.5,1.3l-1.3-1.1l0.1-1.5l1.1-1.1
	l-1.9-0.6l-0.1-0.5c0,0-1.7-1.7-1.8-1.6c-0.1,0.1-0.5,0.5-0.5,0.5l-3.9-0.4l-1.4,2.4l-0.3,1.3c0,0-2.2,2.2-2.4,2.3
	c0.2,0,1.2,1,1.2,1l-0.9,2.1l-3.4,2l-1.7,0.2c0,0-1,3.7-1,3.9c0.1,0.2-1.4,0.9-1.4,0.9l-1,0.7l-0.4-1.3c0,0-0.5-1-0.6-1.3
	c0.3,0.1,1.2,0.2,1.2,0.2l0.2-0.8l-1,0.1l0.4-1.4l0.9-1.5l-3.1-0.2L3,327.9l-1.6-0.2L1.3,327l-1.1-0.7l-1.3-0.6l-1.4,0.2l-0.1-1.3
	l0.4-1.2l-1.4-0.2c0,0,2.5-2.6,2.4-2.5c-0.1,0.1,7-3.5,7-3.5l0.8-0.9l1.4-0.1l3-1.4l2.3-1.6l0.2,0.1l-1.7,1.6l-0.5,0.6l-1.4,0.7
	l1.3,0.2l-0.2,0.7l1.4-0.2l1.4-1.1l1.1,0.4l0.5,0.5l1.5-0.1l-0.1-1.1l-2.3-1.7l-0.5-0.5l-0.2-0.6l1,0.1l0.8,0.7l0.9-0.9l1.8-0.2
	l1.8-1.3l-0.1-0.8l1.4-1.3l-0.9-1l2.4-0.1l2.1,0.1c0,0,1-0.5,1.2-0.2s1.7,1.4,1.7,1.4l-0.6,0.5l-2.5,0.3l-0.6,1.2l1.8,0.2l1.4-1.4
	l1.5-0.1l0.2,1.4c0,0-1.7,1-1.9,1c-0.2,0.1-1.3,0.5-1.3,0.5l-0.1,1.1l-1.6,0.2l-1.7-0.3l-0.8,0.1l-1.3,1l1,0.9c0,0,1.5-0.6,1.7-0.8
	c0.2-0.2,1-0.5,1.2-0.2c0.2,0.3,1.2,1.1,1.2,1.1l0.8,1.6l0.8,0.2l2.4,0.8c0,0,1.7,0.4,1.7,0.5c0,0.1-0.2-1-0.2-1l-1.3-1.5
	c0,0-0.1-0.4,0.4-0.3c0.4,0.1,1.4,1,1.4,1c0.2,0.1,1.4,0.8,1.4,0.8l0.5-1.3l1.1-0.7l-0.4-0.8l-0.6-0.7l-0.7-0.8l0.1-0.9
	c0,0,0.2-0.1,0.4-0.2c0.2-0.1,0.7-0.5,0.8-0.3c0.1,0.2,1.3,1.8,1.3,1.8l1.1,0.2l0.5-0.9c0,0,1.5-0.2,1.5-0.1c0,0.1,0.1-0.7,0.1-0.7
	l1.4-0.4l-2-1.7l-1.1-0.5l-0.8,0.2l-0.8-0.9l0.8-0.8l0.4-1.1l-1-1l-1.5-0.3l-0.4-0.8c0,0-1.3-0.2-1.4-0.1c-0.2,0.1-1.1-1.1-1.1-1.1
	l-0.8-1c-0.1-0.1-0.5-0.5-0.8-0.4c-0.2,0.1-2.7,0.1-2.7,0.1l-0.6,0.2l-0.8-0.6l-3.1,0.8l-1.6,1.3c0,0-0.1-0.7,0-0.9
	c0.1-0.2,1.3-0.8,1.4-1c0.2-0.1-1.4-0.2-1.4-0.2s-2.9,1-3,1.1c-0.1,0.2-2.3,1.9-2.3,1.9l0.1,1.4l2,0.3l0.8,0.2l-0.5,0.5l-0.4,0.9
	l-1.3,0.7l-1.6,1.2l-1.4,0.5l-0.2-1l1.2-0.7c0,0-0.2-1.5-0.4-1.4c-0.1,0.1-1.4-0.1-1.4,0.1c-0.1,0.2,0.1-1.1,0.1-1.1l-0.1-1.3
	l-0.3-1c0,0,1-0.8,1.2-0.9c0.2-0.1,2.1-0.2,2.1-0.2l3-1.7l-2.5-0.1c0,0-2.3,0.1-2.4,0.3c-0.1,0.2-1.7,1.9-1.7,1.9l-1,0.7l-3.2,2
	l-0.1,1.4l-1.3-0.2l-1-0.2l-2.4,1v1.3l-4.4,0.2c0,0-2.1-0.3-2.1-0.6c0-0.3-0.8-0.9-1-0.9c-0.2,0-2.9,0.8-2.9,0.8l-0.1,0.8l-3.1-0.2
	c0,0-2.6,0.5-2.5,0.2c0.1-0.2-1.4-0.1-1.4-0.1l2.2-1l-1.5-0.7l-2.7-0.4l-1.9-0.6l-2.1,0.3l-0.2-0.9l-1.9,0.8l-0.5-1.3l-1.3,0.6
	c0,0-4.9,1-5.1,1.1c-0.2,0.1-1.4-0.5-1.4-0.5l-1.5,0.7l-2.9,0.2l-1.1-0.8l-2.3-0.5l-2.6,0.1l-4.8-0.8c0,0-2.7-0.4-2.6-0.5
	c0.2-0.1-1.5-0.5-1.5-0.5s0.1-0.2,0.1-0.3c-0.6,0.2-5.3,1-5.3,1l-6.3,2l-4.1,0.8c0,0,0.1,1.1,0.2,1.3c0.1,0.2,0.4,1.4,0.4,1.4
	l-1.1,0.2h-1.2l0.6-0.8l-6.1,1.7l0.1,0.7l-0.4,0.8l1.9,0.2l1.6,0.2c0,0,0.9-0.5,0.9-0.4c0,0.2-0.5,1.6-0.5,1.6l-1.9,0.1
	c-0.1-0.2-1.1,0.1-1.1,0.1s-1.3,0.8-1.3,0.6c-0.1-0.2-2.5,0.4-2.5,0.4l-2.8,1.6l-1.1,1.6l-0.1,1.2l2.1-0.4l-1.2,1.6l1.4-0.1
	c0,0,1.6,0,1.7,0.2c0.1,0.2,0.8,0.1,0.8,0.2c0,0.1-14.2,5.6-14.3,5.4c-0.1-0.2-2.2,1-2.2,1s2.7-0.5,2.9-0.5c0.2,0,4.2-1,4.2-1
	l1.9-0.5c0,0,4.1-1.2,4.2-1.4c0.1-0.2,2.9-1.7,3.1-1.7c0.2,0,1.1-0.4,1.2-0.2c0.1,0.2,4.1-1.1,4.1-1.1s1.4-1,1.3-1.2
	c-0.1-0.2-1-0.7-0.7-0.7c0.2-0.1,2.4-0.4,2.4-0.4s3.2-1.3,3.2-1.1c-0.1,0.2-3.3,2.3-3.3,2.3l4.6-0.9l1.9-0.8c0,0,1.6-0.7,1.4-0.5
	c-0.1,0.2,1.8,0.7,1.8,0.9c0,0.2,4,0.8,4,0.8l1.2,1.8l-0.2,2.3l-0.1,2.9l2.2-0.2l-0.5,1.9l0.1,3.2c0,0,0.1,1.1,0.1,1.3
	c0,0.2-1.7-0.4-1.7-0.4s-0.2,1.4-0.1,1.6c0.2,0.2,2.2,2.2,2.2,2.2l-0.7,0.8l-1.5,3.7l-3.5,4.1l-0.6,2.2l-1.7,1.9l0.3,1.4
	c0,0-0.5,1-0.4,1.1c0.1,0.1,0.8,6.6,0.8,6.6l2.5,1.6l0.7,1.2l0.4,4.9l1.1,2.2l-1.2,0.8l1.4,1.9l0.5,0.1l1.1,1.3l-0.4,1.7l1.1,0.9
	l1.1,1.7l0.2,0.8l1-1l-1-2.1c0,0-0.7-1.6-0.7-1.9c0.1-0.4-1-3-1-3s-1-2-0.8-2.2c0.1-0.2-0.7-1.4-0.7-1.4l0.4-2.4l1.7,0.4
	c0,0,0.3,2.3,0.3,2.5c0,0.2,0.4,1.7,0.4,1.7l2.3,3.2l-0.4,1.6l4.4,5.2l-0.1,2.1l-0.7,1l0.4,1.4l3.6,2.7l0.6-0.1l1.1,1.1l3.9,2l2,0.5
	l2.3-0.7l1.5,0.7l2.3,2.6l2.3,0.6l2.4,0.8h1.1l0.3,1.4c0,0,1.1,1.4,1.3,1.6c0.2,0.2,0.1,1.7,0.1,1.7l1,0.5l1.2,1.3l0.8,0.7l0.8,1
	l0.5-0.4l1.1,0.3l1.6,1.4l1-0.6l-0.3-1.1l0.9-1h0.8l0.9,0.7l-0.1,0.8l1.1,1.7l0.1,4.8l-1,1.6l-1.3,0.9l-0.1,1.4l-1.4,0.5l-0.5,1.9
	l-0.8,1.7l0.2,1.4l1.2,1.1l-1.1,1.1l-0.8,1.1l0.7,2.3c0,0,0.4,1.1,0.4,1c0-0.1,1.1,0.8,1.1,0.8l2.1,4.2l2,2.9c0,0,3,5.9,3,6
	c0.9,0.7,7.4,5.3,7.4,5.3l1.1,5.8L5,463.2l1,3.5l-0.4,7.1l-0.3,1.4c0,0,1.3,2.2,1.3,2.6c0,0.3,0.2,3.1,0.2,3.1l0.9,3l1-0.1l-0.6-1.8
	l0.8,0.1l0.6,2.8l0.1,1.1l-0.6-0.6L8.3,486l-0.4,0.5l0.8,0.7l-0.4,1.1l-0.2,1.4l1.1,0.2l0.8,0.6l-0.8,1.4c0,0,4.9,8.7,9.1,9.7
	c4.1,1,5.3,1.4,5.3,1.4l1.8-1l0.6-0.7l-3.7-1.3l-2.8-3l-0.6-1.6l0.9-0.6l-0.2-1.2c0,0,0-0.9,0.3-1.1c0.3-0.2,1-1.4,1-1.4l-1-0.5
	l-1.6-1.6l0.2-1.8l1-0.6c0,0,0.1-1-0.1-1.3c-0.2-0.2,0.2-1.4,0.5-1.5c0.2-0.1,0.9-1,0.9-1h-1.1l-0.6-0.2l-0.8-1.3v-1l1.4,0.4
	l1.3-0.2l0.7-1c0,0-0.2-0.6-0.3-0.9c-0.1-0.2,0.2-1.3,0.4-1.4c0.2-0.1,1.7,0.1,1.7,0.1l2.7-0.7c0,0,1-1.8,1-2.2
	c-0.1-0.3-0.1-1.4-0.1-1.4s0-0.7-0.6-0.8c-0.6-0.1-0.6-0.3-0.8-1c-0.2-0.6-0.6-1.4-0.6-1.4l-0.8,0.2l0.7-0.7l1.6,1.2l2.4,0.4
	l1.8-1.8l1.3-3.1l0.6-2.3h1.2l1.3-2.3l0.5-2.1l-0.4-2.6l0.6-1l4.1-2.8l3.1-1l1-0.8c0,0,1.6-2.1,1.6-2.4s0.6-3.3,0.6-3.3
	s0.7-3.7,0.6-3.9c-0.1-0.2,0.2-3.4,0-3.5c-0.2-0.1,0.1-1,0.1-1l3-4.3l1.4-3.3c0,0,1-1.7,0.9-2C52,427.1,51.1,424.4,51.1,424.4z
	 M82.6,307.7c0,0,0.5-2.4,0.1-2.6c-0.4-0.2,1.4-1.7,1.4-1.7s2.6-1.2,2.7-1.6c0.1-0.4-0.7-0.2-0.7-0.2l0.2-1.8l1.7-0.6
	c0,0-1-1.4-1.2-2.2c-0.2-0.7,2.9-1.1,2.9-1.1l5.5-2.5l-6.6,0.7l-0.2-0.8l-6.9-1.6l-13.9,0.5l-1.6,0.8h-4.8l-6.7,0.6
	c0,0-6.3,0.8-6.7,1.1c-0.4,0.2,0.7,0.6,0.7,0.6l-0.1,0.8l-7.8,1l-0.5,0.8c0,0,0.8,0.8,1,1c0.1,0.1,3.3,0.8,3.3,0.8l3.8,0.5
	c0,0,2.2,1,2.5,1.3c0.4,0.4,0.2,1.4,0.1,2c-0.1,0.6-0.5,0.7-1,1.4c-0.5,0.7,1,0.4,1,0.4l1.7,0.8c0,0-0.5,0-1.2,0.1
	c-0.7,0.1-1.7,0.4-1.7,0.4l-0.1,1.3l2.4-0.5l-0.2,0.8l-1.7,0.4l-1.7,2l-0.1,3.8l0.4,3.2l1,2.6l1.6,0.2l1.8,1.1l2.4-0.1l2.4-3.2
	l2.5-2.4l0.7-1.3l1.2-0.7l2.6-0.6l3.3-0.7c0,0,3.1-2,3.5-2.3c0.4-0.2,9-2.9,9-2.9L82.6,307.7z M85,316.5l3.3-1.1l0.7-1.3l-1.3-1.1
	l-6.1,0.7l-1.8-1.1l-2.1,1.2c0,0,1.1,0.5,1.4,0.7c0.4,0.2,1.1-0.2,1.1-0.2v1.1c0,0,1.9,1.1,1.7,1.4C81.6,317.2,85,316.5,85,316.5z
	 M90.9,332.8l-0.7,0.4L90,334l0.6,0.4l1,0.2l1-0.2l0.8-0.5l0.2-0.2l1.4-0.1l0.2-0.6l0.3-0.6v-1.7l0.8-0.4L96,329l-1.2-0.3l-1-0.2
	l-0.6,0.2l-0.4,0.5c0,0-0.6,0.6-0.5,0.5c0.1-0.1,0.4-0.1,0.4,0.1c-0.1,0.2-0.4,0.4-0.4,0.4h-0.5l-0.4-0.2l-0.6,0.1l-0.2,0.4l0.2,0.6
	l-0.4,0.4l0.5,0.4l0.5,0.1l-0.1,0.6L90.9,332.8z M95.6,328.1c0.3,0.1,0.4,0.3,0.4,0.4c0,0.1,0.6,0.2,0.6,0.2l0.5-0.1l-0.4,0.6
	c0,0,0.1,0.4,0.2,0.5c0.1,0.2,0.5,0,0.5,0s1-0.2,1.1-0.1c0.1,0,0,0.4,0,0.4l0.4,0.6c0,0,0.2,0.8,0.2,1c0,0.2-0.3,0.2-0.3,0.2
	s-0.8,0.1-0.9,0.1c-0.2,0-0.5,0.3-0.8,0.6c-0.3,0.3,0,0.2,0,0.2h0.6c0,0,0,0.4,0.1,0.6c0,0.2-0.5,0.3-0.6,0.3
	c-0.2,0-0.9,0.3-0.9,0.3l0,0.6l0.9,0.1l0.9,0.1l0.2,0.3c0,0-0.6,0.1-0.7,0c-0.2-0.1-0.6,0.6-0.6,0.6l-0.4,0.5l-0.9,0.7l0.5,0.2
	l0.3-0.4l0.8,0l0.9-0.1c0,0,0.5-0.6,0.6-0.6c0.1,0,1.4,0,1.4,0s1-0.2,1.1-0.1c0.1,0.1,0.9,0.2,1,0.3c0.1,0,1.7-0.4,1.7-0.4
	s0.3-0.5,0.4-0.7c0.1-0.2-0.4-0.3-0.6-0.4s0.4-0.3,0.6-0.4c0.2-0.1,0.3-0.6,0.4-0.8c0.1-0.2-0.2-0.6-0.2-0.7c0-0.1-0.6-0.1-0.8-0.1
	c-0.2,0-0.8,0-0.8,0l0-0.8c0,0-1.9-2.5-1.8-2.7c0-0.1-0.4-0.9-0.6-0.9c-0.2,0-0.4-0.2-0.7-0.5c-0.2-0.3,0.3-0.7,0.3-0.7
	s0.7-0.7,0.8-0.9c0.1-0.2-0.1-0.6-0.2-0.7c-0.1,0-1.5,0-1.5,0s-0.4-0.3-0.4-0.4c0-0.1,0.4-0.2,0.6-0.2c0.1,0,0.8-1.4,1-1.4
	c0.2,0-0.1-0.4-0.1-0.4l-0.6,0.2l-0.5,0.8c0,0-0.5,0.1-0.7,0c-0.2-0.1-0.6,0-0.8,0c-0.2,0-0.5,0.5-0.5,0.5s-0.6,0.6-0.7,0.6
	c-0.2,0-0.7,0.7-0.7,0.7c0,0,0.1,0.6,0.1,0.6s-0.1,0.2-0.3,0.2c-0.2,0,0.2,0.7,0.2,0.7l0.5,0.2c0,0-0.3,0.3-0.4,0.2
	C95.7,327.5,95.3,327.9,95.6,328.1z M283,319.4C283,319.4,283,319.4,283,319.4C283,319.4,283,319.4,283,319.4z M234.1,389.7
	c0.1-0.1,1.2-0.7,1.2-1c0-0.3,0.8,2.6,0.8,2.6l0.6,2c0,0,0.4,1.4,0.6,1.7c0.2,0.3,0.4,2.1,0.4,2.3c0,0.2,0.5,1.2,0.3,1.4
	c-0.2,0.1-0.6,0-0.6,0.2c0.1,0.2,0.3,1,0.3,1.2c0,0.2-0.1,1.2-0.2,1.4c-0.1,0.2-0.1,0.7-0.1,1c0,0.2,0.2,0.7,0.2,0.8
	c0,0.1,0.1,0.3,0.1,0.3s0.2,0.1,0.2-0.1c0.1-0.2,0.7-0.3,0.8-0.2c0.1,0.1,1,1.2,1.1,1.5c0.1,0.3,1.1,1.9,1.2,2
	c0.1,0.2,0.6,0.7,0.3,1.1c-0.3,0.4-0.3,0.5-0.3,0.8c0,0.2,0.2,1.1,0.6,1.6c0.4,0.5,1.2,1.4,1.2,1.4s1,0.7,1.2,0.9
	c0.2,0.2,1.3,0.3,1.4,0.8c0.1,0.5,0.4,1,0.4,1s0.9,0.3,0.9,0.4c0-0.1,0-1.5-0.1-1.7c-0.1-0.2-1.1-2.1-1.2-2.3
	c-0.1-0.1-0.3-0.4-0.2-0.9c0.1-0.5-0.1-1.9-0.1-1.9l-1.9-2.2c0,0-1.6-1.6-1.7-1.5c0,0.1-1.3-0.5-1.2-1c0-0.5-0.1-1.7-0.5-2
	c-0.4-0.3-0.7-0.7-1-0.9c-0.3-0.2-0.1-1.7,0-1.9c0.1-0.2,0.7-1.9,0.7-2.1c0-0.1,0.2-1.8,0.2-1.8s0.5-0.7,0.6-0.4
	c0.1,0.2,0.7,0,0.5,0.7c-0.2,0.7-0.1,1.2-0.1,1.2l1.4-0.3l1,1l0.7,1l0.9,0.6c0,0,0.2,1.1,0.4,1.2c0.1,0.1,0.7-0.2,0.7-0.2l0.9,0.6
	c0,0-0.5,1-0.4,1.2c0.1,0.2,0.2,1.1,0.2,1.1l0.9-0.7l1.1-0.8l0.6-0.8l0.2-0.6l1.6-0.7l1.5-1.4l0-2.9l-0.5-1.8l-1.4-1.9l-2.6-2.6
	l-1-1.3c0,0-0.7-0.9-0.7-1.2c0-0.2,0.2-1.5,0.2-1.5l0.7-0.7l1.4-1.4c0,0,1-0.6,1.1-0.5c0.2,0.2,1.4,0.1,1.5,0.2
	c0,0.1,0.2,0.1,0.1,0.3c-0.1,0.2,0,1.3,0.2,1.4c0.1,0.1,0.4,0.2,0.5,0.3c0.1,0,0.5-0.1,0.6-0.4c0-0.2,0-1.1,0-1.3
	c0-0.2,0.1-0.2,0.2-0.2c0.1,0,0.7,0,0.7,0l0.6-0.6l1.1,0.4l1.2-1c0,0,0.6-0.1,0.7,0c0.1,0.1,1.1-0.8,1.1-0.8l1.1-0.2l1-0.4
	c0,0,0.4-0.9,0.4-0.8c0,0.1,2.3-2.3,2.3-2.3l0.8-1.9l0.9-2.7l0.6-3.3l0-1c0,0-0.9,0.7-1,0.8c-0.1,0-0.8-0.2-0.8-0.2l0.6-1
	c0,0,0.3-0.7,0.2-0.8c-0.2,0-1-0.3-1-0.3s0.3-0.8,0.4-0.8c-0.1,0-1.4-1.4-1.4-1.4s-1.8-2.5-1.8-2.3c-0.1,0.2-1.4-1-1.6-1
	c-0.1,0-0.2,0-0.3-0.2c-0.1-0.2,1.2-1.9,1.2-2c0-0.1,1.2-1.4,1.4-1.3c0.2,0,0.9,0.1,0.9,0.1s-0.2-0.8-0.3-0.8
	c-0.1,0-2.8-0.3-2.8-0.3s-1.1,0.6-1.1,0.8c0,0.2-0.9,0.1-0.9,0.1l-0.1-0.9l-1.1-0.5l-1.2-0.4l0-0.8c0,0,0.8-0.3,0.9-0.4
	c0.1-0.1,1.1-0.6,1.2-1c0.1-0.4,0.7-1,0.8-1.2c0.1-0.1,0.6-0.6,0.7-0.5c0.1,0.1,0.9,0.6,0.8,0.7c-0.1,0-0.6,0.9-0.5,1.1
	c0.1,0.2,0.7,1,0.6,1.1c-0.1,0.1-0.3,0.6-0.3,0.6l0.6-0.1c0,0,0.8-0.6,0.7-0.7c0-0.1,0.6-0.8,0.7-0.8s1.4-0.3,1.5-0.2
	c0,0.1,1.4,0.4,1.4,0.4l0.2,2.4c0,0,3.2,0.8,3.2,1c0,0.2-0.4,0.5-0.4,0.5s0,0.6,0.1,0.7c0.2,0.1,0.7,0.5,0.8,0.7
	c0.1,0.2,0.4,1.2,0.4,1.2s-0.4,1-0.4,1.1c0.1,0.1,0.9,0.8,0.9,0.8l2.3-0.9c0,0,1.2-1,1.2-1.1c0-0.1-1.3-3.3-1.3-3.3l-3-2.1l-1.3-1.1
	l1.8-1.8l-0.2-1.6c0,0,0.4-1.5,0.5-1.5c0.1,0,1.2-0.8,1.2-0.8l1.3,0.9l1.9-1.2l1.1-3.9l0-5l-1.7-3.1c0,0-0.8-1.9-0.9-1.9
	c-0.1,0-1.3-1.8-1.3-1.8l-2.7-1.2l-1.2,0l-0.7,1.2l-0.8-0.9l-1-1.8l0.1,1.1c0,0,0.2,0.7,0.1,0.9c0,0.2-0.8-1-0.8-1s-1.3-0.2-1.4-0.2
	c-0.1,0-0.7-0.4-0.7-0.4s1.9-2.2,1.7-2.1c-0.2,0.1,0.3-2.8,0.3-2.8s0.7-1.4,0.7-1.3c0,0.1,2.6-0.3,2.6-0.3s4.7-0.1,4.7,0
	c0,0.1,2.3-0.2,2.3-0.2s0.1,0.7,0.3,0.8c0.2,0.1,2.1,0,2.1,0l1.4-0.3l0.7-0.1c0,0-0.8-0.8-1-0.8c-0.1,0-0.9-0.4-1-0.4
	c-0.1,0,0.6-1.5,0.6-1.8c0-0.2-0.1-1.1,0.2-1c0.3,0.1,2.5,0.1,2.5,0.1s0.9,0.8,0.9,1.1c0,0.2,1.4,1.1,1.4,1.1s0.8-0.8,0.8-1
	c0.1-0.1,0.5-0.6,0.6-0.6c-0.2-0.2-0.8-1-0.8-1s0.7-0.8,1-0.4c0.4,0.4,1.2,2.1,1.2,2.1s-0.7,1.8-0.7,2c0,0.2-0.3,1.8-0.3,1.9
	c0,0.1-0.8,0.8-0.8,0.8s-0.4,0-0.4,0.2c0,0.2,0.6,1.3,0.6,1.3s0.2,1.2,0.3,1.3c0.1,0.1,4.1,3.5,4.1,3.5l2.6,2.6l1.7,1.4l0.5-0.1
	c0,0,0.4-1.9,0.2-1.9c-0.2,0.1-0.8-0.6-0.7-0.7c0.1-0.1,0.2-0.7,0.4-0.6c0.2,0,0.8,0.2,0.8,0.2l-1.2-1.5l0.4-0.8l0.9,0.3l-1.2-1.3
	l-0.6-1.3c0,0,0.7,0.2,0.7,0.3c0,0.1,0.8-0.5,0.5-0.6c-0.2,0-1.7-0.6-1.7-0.7c0-0.1-0.8-0.3-0.9-0.5c0-0.2,0.2-0.8,0-0.8
	c-0.1,0-1.4-0.6-1.4-0.6l-0.8,0.1l-0.4-0.9l0.2-0.7c0,0-0.8-1.1-0.8-1.2c0.1,0.1,1.7-0.6,1.9-0.6c0,0,0.8-0.1,0.8,0.2
	c0.1,0.3,0.4,0.6,0.4,0.6l0.8-0.8c0,0,0.6-0.5,0.8-0.4c0.2,0.1,1.4,0.4,1.6,0.5c0.1,0.1,0.9,0.4,1,0.5c0-0.2,0-0.7,0-0.7l0-0.4
	l1.1-1.5c0,0,0.4-0.6,0.8-0.7c0.4-0.1,1.2-0.8,1.4-0.7c0.2,0.1,1.5,0.1,1.6,0.4c0.2,0.4,0.9-0.1,0.9-0.1s-0.7-0.8-0.7-0.8
	c0,0.1-2.2-0.9-2.4-0.8c-0.1,0-1.6-0.9-1.6-0.9s-0.8-0.3-0.8-0.3c0,0,0.6-0.3,0.8-0.4c0.2-0.1,0.8-0.8,0.8-0.8s-0.3-0.5-0.4-0.7
	c-0.2-0.2,0.9,0,1.2,0.1s2.2,0.2,2.1,0.4c0,0.1,1.2,0.1,1.2,0.4c0,0.3,0.4,0.4,0.6,0.6c0.2,0.2,1.7,0.4,1.8,0.4
	c0.1,0,1.6-0.1,1.6,0.1c0,0.2,0.5,0,0.5,0s-0.2-1.2-0.5-1.1c-0.3,0.1-0.8-0.3-0.4-0.4c0.4-0.1,1-0.5,0.8-0.6c-0.2-0.1-0.5-0.5-1-0.7
	c-0.5-0.2-2.4-0.6-2.6-0.6c-0.2,0.1-3.2-0.6-3.4-0.6c-0.2,0-1.2-0.3-1.2-0.3l-10.2-2.7c0,0-6.3-0.7-6.3-0.8c0-0.1-3.7-0.4-3.7-0.4
	l2.2,1.8l-2.2-0.3c0,0-2.7-0.4-2.8-0.6c-0.1-0.1-7.6-0.2-7.6-0.2l-1.1-1.2c0,0-3.6-0.6-3.7-0.6c-0.1,0-4.6,0-4.6,0l-3.7-0.6
	c0,0-2.5-1.1-3.1-1c-0.6,0.1-6.1-0.4-6.4-0.5c-0.3-0.2-2.5,0.2-2.5,0.2l1.8,1.4l-2.9-0.1l-2.9,0l-1.1-0.6l0,1.6c0,0-0.8,0.2-0.8,0
	c0-0.2-2.6-1.1-2.6-1.1s-2.2-1.9-2.2-1.8c0,0.1-3.5-0.7-3.5-0.7l-2.2-0.4c0,0-0.6,0.3-0.6,0.4c0.1,0.2,0.9,0.7,0.8,0.8
	c-0.1,0.1-1.4-0.1-1.4-0.1l-3.4-0.1l-0.6-0.6l-4.5,0c0,0-1.7-1.3-1.7-1.2c0,0.1-1.3,0.3-1.3,0.3l-1,1l-2.7,0.2l2.9-1.6l1-0.8
	c0.1-0.2-0.7-1.4-0.9-1.2c-0.2,0.2-2.4-0.6-2.6-0.6s-3.5-0.1-3.5-0.1c-0.2,0-1.3,0-1.3,0s-0.4-1.1-0.6-1.1c-0.2,0-2.8,0-2.8,0
	s-2.3,0.5-2.4,0.7c-0.1,0.2,0.4,0.5,0.4,0.5s-1.2,0.9-1.4,0.8c-0.1-0.1-3.7-0.1-3.7-0.1s-5,1.1-5,1c0-0.1-1.5,0.5-1.8,0.7
	c0.3,0.3,1.3,0.9,1.2,1c-0.2,0.2-3.5,0.3-3.6,0.1c-0.1-0.2-1.4,0.3-1.6,0.3c0.2,0.1,1.8,1.3,1.9,1.5c0.1,0.2,0.4,0.5,0.8,0.3
	c0.4-0.2,0.8-0.3,0.8-0.2c0.1,0.2,0,0.5,0,0.5s-1,0.2-1.1,0.2c-0.1,0-1.3-0.7-1.4-0.7c-0.1,0-1.7-0.4-1.9-0.4
	c-0.2,0-1.1,0.1-1.1,0.1s-0.7,0.6-0.5,0.7c0.2,0.1,0.6,0.8,0.7,0.8c0.1-0.1,0.8-0.4,0.9,0c0,0.4-0.8,0.6-0.8,0.6s-1.2-0.5-1.2-0.6
	c0-0.1-0.6-0.8-0.6-1.2c0-0.4-0.7-1.6-0.9-1.4c-0.2,0.2-0.9,0.3-0.9,0.3l0.9,0.8c0,0,0.8,0.6,0.6,0.7c-0.2,0-0.8,0.4-0.8,0.5
	c0,0.1-0.5,0.8,0,0.8c0.5,0,1.4,0.8,1.4,0.8s0,1.1,0.1,1.2c0.1,0.2,1.3,1,1.3,1s0.8-0.5,0.9-0.6c0.1-0.1,1.2-0.3,1.4-0.1
	c0.2,0.2-0.5,0.8-0.7,0.7c-0.2-0.1-0.6-0.2-0.8-0.2c-0.2,0.1-0.2,0.1-0.2,0.1s-0.3,0.6,0,0.7c0.3,0.1,0.6,0.5,0.6,0.7
	c0,0.2-0.8,1.6-0.8,1.6l-1.1,0.2c-0.4-0.1-1-0.4-1-0.4l1.2-0.9l0.2-1.2c0,0,0-0.1-0.3-0.4c-0.3-0.3-1.4-1.3-1.4-1.3
	s-0.7-1.1-0.7-1.2c0-0.1-0.3-0.7-0.3-0.7s-0.8-0.5-0.9-0.6c-0.2,0-0.2-0.5,0-0.7c0.1-0.2-0.1-1.3-0.2-1.2c0,0.2-1.4,0-1.6-0.1
	c-0.2,0-0.5-0.5-0.5-0.5s-0.2-0.7-0.5-0.4c-0.3,0.3-0.9,0.4-0.9,0.4l-0.6,1.5l0.2,0.6l-1.1,0.8c0,0,0.9,0.8,1,0.9
	c-0.1,0,0,0.8,0.1,1c0,0.2,1.7,0.6,1.7,0.6s0.9,0.4,1,0.7c0.1,0.4-0.2,0.8-0.2,0.8l-1.7-0.8l-3.8-1.2c0,0-3.7-0.2-3.6-0.4
	c0.1-0.1-1.4-1-1.4-1l-0.8,0.4c0,0,0.8,0.6,0.9,0.6c0.1,0,1.3,0.5,1.3,0.5s0.4,0.2,0.4,0.5c0.1,0.3-0.7,0.7-0.7,0.7
	s-0.5-0.6-0.5-0.7c0-0.1-0.1-0.6-0.3-0.5c-0.2,0.1-1.6,0.8-1.6,0.8s-1.7,0-1.9,0.2c-0.2,0.2-1.3,0.9-1.4,0.7c-0.1-0.2,0.2-1,0.1-1.2
	c0-0.2-1.7,0.3-1.7,0.3s-2.1,0.7-2.2,0.9c-0.1,0.2-1,0.4-1.2,0.4c-0.2,0-0.4,0-0.4,0s-0.8,0.5-0.7,0.8c0.2,0.3-1.2,0.4-1.2,0.4
	s-0.8-0.5-0.9-0.6c0-0.1,0.9-0.7,1-0.8c-0.1,0.1-1-1-1.1-1.1c-0.1,0-2.3,0-2.7,0c0.3,0.1,1,0.8,1,0.9c0,0.1,0.1,1.3,0.1,1.3
	s0.6,0.4,0.8,0.4c0.1,0-0.1,0.7-0.1,0.7l-1.1-0.1c0,0-0.4-0.6-0.8-0.3c-0.4,0.4-1.6,1.3-1.6,1.2c-0.1-0.1-0.8,0.1-0.7,0.4
	c0,0.2,0.6,0.8,0.6,0.8s-0.8,0.6-0.7,0.4c0.1-0.2-2.1-0.8-2.2-0.8c-0.2,0-1.1,0.3-1.1,0.3l0.4,0.7c0,0,1.2,0.1,1.4,0.3
	c0.2,0.2-0.3,0.7-0.4,0.7c-0.1,0-2.9-1.3-2.9-1.3s-0.9-1-0.6-1.2c0.3-0.3,0.5-0.7,0-0.7c-0.5,0-1.1-0.4-1.1-0.6
	c0-0.2,3.1,0.3,3.1,0.3l1.8,0.2c0,0-0.2,0.2,0.5,0c0.7-0.2,1.9-0.8,2.1-0.9c0.2,0,0.4-0.8,0.4-0.8l-0.2-0.7l-6.8-1.6
	c0,0-2.3-0.7-2.3-0.8c0-0.1-2-0.3-2-0.3l-1,0.1l0.8-1c0,0-3.1-0.9-3.2-0.8c-0.1,0.1-1.4,0.7-1.4,0.7l-2.4-0.4l-3.1,0.7l-3.1,0.8
	l-4.5,1.9l1.7,0.2l-0.7,1.2l-2,1.5l-1.1,1.8l-0.2,1l-1.1,1.2c0,0-0.8-0.4-0.9-0.6c-0.2-0.2-2.8,0.8-2.8,0.8l-1.6,1.5
	c0,0-0.4,0.8-0.5,1c-0.1,0.2,0.1,2.3,0.1,2.3s1,0,0.7,0.3c-0.3,0.3-0.2,1.6-0.2,1.6l1.1,0.8c0,0,1.5,0.5,1.7,0.4
	c0.2,0,0.9-0.5,1-0.6c0.1-0.1,1-1,1.3-0.9c0.3,0,1-0.8,1.1-0.5c0.1,0.3,0.2,1.3,0.4,1.5c0.2,0.2,0.7,0.7,1,1.2
	c0.2,0.6,0.6,1.1,0.5,1.2c-0.1,0.1-0.6,0.7-0.6,0.7s-1.2,0.2-1.4,0.3c-0.2,0.2-0.4,0.2-0.5,0.2c-0.1-0.1,0.4-0.6,0.5-0.8
	c0.1-0.2-0.3-0.8-0.4-0.8c-0.2,0-0.3-0.4-0.2-0.5c0.2-0.1,0.1-0.9,0.1-0.9s-0.2-0.1-0.4-0.1c-0.1,0-1.5,0.6-1.5,0.6s-0.8,0.8-0.8,1
	c0,0.2-0.4,1-0.2,1.6c0.2,0.6,0.7,1.6,0.7,1.6s0.5,0.4,0.3,0.5c-0.2,0.2-0.6,0.8-0.6,0.8l-1,0c0,0-1.7,0.2-1.9,0.3
	c-0.2,0.1-1.8,0.6-1.8,0.8c0.1,0.2-0.4,1.9-0.4,1.9c-0.1,0-1.8,1.2-1.9,1.2c-0.2,0-1.4,0.3-1.4,0.3s-0.6,1.5-0.6,1.4
	c0-0.1-1.9,0.9-1.9,0.9s-1.4-0.4-1.4-0.6c0-0.2-0.5-0.5-0.6-0.4c0,0.1,0.5,1.4,0.5,1.6c0,0.2,0.1,0.7-0.1,0.6
	c-0.2-0.2-1-0.4-1.1-0.5c-0.2-0.1-1.5,0-1.5,0H97c0,0-0.7,0.6-0.7,0.5c0-0.1-0.1,0.5-0.1,0.5l0.4,0.4l1.4,0.6l1.4,0.8l0.5,1.3
	l0.6,1.2c0,0-0.4,2.5-0.5,2.6c-0.1,0.1-0.9,0.7-0.9,0.7l-2.6,0c0,0-1.3-0.3-1.4-0.3c-0.1,0-1.9,0.2-1.9,0.1c0-0.2-0.6-0.1-0.6-0.1
	l-0.3-0.3h-0.7L91,347l-0.9,0v0.7c0,0,0.4,1.6,0.3,1.5c0-0.1-0.2,1.9-0.2,1.9s-0.9,1.7-0.9,1.9c0,0.1,0,1.2,0,1.2l0.5,0.8l0.1,1
	c0,0-0.4,0.9-0.2,0.8c0.2-0.1,1.4,0,1.5-0.1c0-0.2,0.8-0.5,0.9-0.2c0.1,0.3,0.6,0,0.7,0.5c0.1,0.5,0.6,1.2,0.6,1.3
	c0,0.1,0.4,0.2,0.4,0.2l0.1,0.3l-0.2,0.2l-1,2.2l-2.2,1.6l-1.3,0.8l-0.4,1l-0.6,0.6l-0.2,1.2c0,0,0.2,1.6,0.1,1.6
	c-0.1,0.1-3,2.8-3,2.8l-1.6,0.4l-0.9,1.5c0,0-1.2,1.1-1.3,1.3c-0.1,0.2-0.7,1-0.7,1s0,1.6,0,1.4c0-0.2-1.7,1.3-1.7,1.3
	s-0.3,1.8-0.4,1.9c-0.1,0.1-0.9,1.5-1,1.4c-0.1,0-0.2,1-0.2,1.1c0,0.2,0.4,0.6,0.4,0.6s0.6,1.1,0.6,1c0-0.1,0,0.4,0,0.4l-0.6,0.6
	c0,0,0.6,0.9,0.6,1s0,2.5,0,2.5l-0.6,1.4l-0.3,1.8l-1,0.8l0,0.5l0.8,0.7l0.1,0.8l-0.2,0.8v0.8l0.6,1.4c0,0,0.6,0.5,0.7,0.4
	s1.3,0.8,1.5,1c0.2,0.3,1.6,2,1.6,2.1c0,0.1,0.2,0.5,0.2,0.5l0.7,2.4c0,0,3.5,2.9,3.5,2.7c0.1-0.1,3.7,2.6,3.7,2.6s2.9-1.4,2.9-1.3
	c0,0.1,2.5-0.1,2.5-0.1l1.5,0.2l1.1,0.5l4.1-1.9l0.8-0.6l3.1-0.1l1.5,0.6c0,0,1,1.5,1,1.7s0.6,1.3,0.7,1.2c0.1-0.2,3.5-0.3,3.7-0.3
	c0.1,0,1.6,1.5,1.6,1.5l-0.1,1.4l-0.2,2.5l-0.5,1.2l-0.5,1.1l-0.1,0.8c0,0,3.6,5.3,3.6,5.3s0.9,2.2,0.9,2.2l1.1,2.8l0.6,1.6
	l-0.6,0.9l1,2.7l-0.4,2.6l-1.6,3.4l-0.7,2.5l0.2,3.3l1.9,3.9l2,4.4l0.2,4.9l1.6,2.9l1.1,2.3l1.1,2.6l0.6,0.8c0,0,0.1,1.3,0,1.3
	c-0.1,0-0.7,0-0.6,0.3c0.2,0.2,1.1,1.8,1.1,1.8l0,0.7l1.3,0.7l1.1-0.5c0,0,1.1-0.2,1.2-0.2c0.1,0,1.7-0.5,1.7-0.5l2.4,0.4l1.7-0.9
	l1.8-0.1c0,0,3.1-3.1,3.1-3c0,0.1,2.9-3.7,2.9-3.7l1.5-1.3l0.8-2.5l-0.1-1.6c0,0,0.3-0.8,0.6-1c0.3-0.2,3-1.8,3-1.8l0.6-2.6L149,449
	c0,0-0.4-1-0.4-1.2c0-0.2,0.3-0.9,0.3-0.9l2.6-2.3c0,0,0.6-0.8,0.9-1c0.3-0.3,2.7-1.4,2.7-1.4l1.7-1.6l0.3-6c0,0-0.6-2.2-0.6-2.4
	c0-0.2-1.2-4-1.2-4.1c0-0.2-0.4-2.5-0.4-2.7c0-0.2,0.9-2.9,0.9-2.9l1.3-2.6l5.4-6.2l3-2.4l4.6-7.5l1.5-3.5l0.3-3.5l-1-0.2
	c0,0-0.5,0.6-0.6,0.6c-0.1,0.1-2.9,0.2-2.9,0.2l-3.3,1l-1.6,0.6l-1.6-1.7l0.2-1.2l-2.1-2.6l-3-3c0,0-1.5-1.2-1.4-1.3
	c0.1-0.1-0.8-2.9-0.8-2.8s-1.5-1.4-1.5-1.4l0-2.7l-1.6-2.7l-1.8-3.3c0,0-1.5-3.7-1.7-3.9c-0.2-0.2-0.8-1.2-0.6-1.2
	c0.2,0,1.6-0.2,1.6-0.2s2.7,3.1,2.7,3.3s1.6,2.8,1.6,2.8s1.2,1.7,1.2,1.6c0-0.1,0.3,1.6,0.2,1.7c0,0.1,0.7,2,0.7,2l2.3,2l0.5,1.5
	l2.1,2.3l0.4,1.4l-1.4-1.3c0,0-0.4,0.7-0.3,0.8c0.2,0.1,1.6,1.6,1.6,1.6l0.7,2l0.5,1.9l0.8,0.6l2.2-0.4l0.4-0.9h2.2l1-0.7l1.2-0.2
	c0,0,0.9-0.9,1-1c0.1,0,3.6-1.6,3.6-1.6s0.1-1.2,0.2-1.2c0.2,0,3.7-1.1,3.7-1.1l0.4-1.4l1.3-0.1l0.4-0.9l1.2-0.8l0.2-2l0.9,0.3
	l0.3-0.7l-0.3-0.4l1.4-2l0-0.7l-1.4-1.2l-0.6-0.7c0,0-2.2-0.2-2.2-0.4c-0.1-0.2-0.9-2.1-0.9-2.1c0-0.6,0-1.7-0.1-1.6
	c-0.1,0.1-0.8,0.8-0.8,0.8l-2.5,2.3l-2.2,0.6c0,0-0.7-0.2-0.8-0.3c0-0.1-0.1-2-0.1-2s-0.9-1.1-1-1.2c0-0.2-0.7,1.4-0.7,1.4
	s-1-1.4-0.9-1.4c0.1,0-0.5-1.4-0.5-1.4l-2.1-2.4L166,369c0,0,1-1.1,1.2-1.1c0.2,0,1.6-0.2,1.8,0.3c0.2,0.5,1.4,2.3,1.4,2.5
	s1.8,1.8,2,1.8c0.2,0,0.9,0.4,1.2,0.5c0.2,0.2,0.7,0.4,0.9,0.6c0.2,0.2,0.7,0.1,0.7,0.1l1.3-0.2c0,0,1.1-1,1.1-0.8
	c0,0.2,1.3,0.3,1.1,0.6c-0.2,0.3,0,1.1,0.2,1.3c0.1,0.2,5.5,1.1,5.5,1.1l2.5,0.3c0,0,2.6-0.2,2.8-0.2c0.2,0,1.8,0.2,2,0.1
	c0.2,0,2.5,2.6,2.5,2.6l2.2,1.1l0.5,0l-1.3,0.6c0,0,0.4,1,0.4,1.1c0,0.1,2.2,1.7,2.2,1.7s0.8-0.5,0.9-0.5c0.1,0,0.7-0.2,0.7-0.5
	c0-0.3-0.1-1.1,0.1-1.2c0.2-0.1,0.5-0.3,0.5,0c0,0.4,0.5,3.8,0.4,3.8c-0.1,0,0.7,2.6,0.7,2.7c0,0.1,1,3.2,1,3.3
	c0,0.1,1.7,3.6,1.8,3.7c0.1,0.1,1.7,4.3,1.7,4.3s0.9,1.7,0.9,2c0,0.3,0.3,1.6,0.6,1.8c0.2,0.2,1.3,0.6,1.3,0.6s0.6-0.5,0.6-0.7
	c0-0.2,0.5-0.9,0.6-1.1c0.2-0.2,0.9-0.3,0.9-0.2c0,0.2,0.9,0.6,0.9,0.6l-0.1,2c0,0,0.2,1.3,0.3,1.8c0.1,0.5,1.1,0.9,1.1,0.9l1.2-1.1
	l0.5-1.8l-1.2-1.8c0,0-0.9-1-1-1.1c-0.1-0.1-0.9-0.2-0.9-0.2s0.1,0.4,0.2,0.6c0.1,0.2-0.2,0.2-0.2,0.2l-0.9-0.4l0.2-1
	c0,0,0.7-0.1,0.8-0.1c0.1,0,0-1.6,0-1.6s0.2-2.8,0.3-2.9c0.1-0.1-0.1-2.9-0.4-3c-0.3-0.1,0-1,0.2-1.1c0.2,0,1.7-0.6,1.7-0.6l0.9-1.7
	c0,0,1.6-1.1,1.7-1.2c0.1-0.1,1.9-2,1.9-2.2c0-0.2,0.2-0.8,0.7-0.9c0.5-0.1,1.4-0.7,1.4-0.7v-1.3c0,0,0.2-0.6,0.5-0.8
	c0.4-0.2,1.3-0.3,1.3-0.3s0.2,0.5,0.1,0.6c-0.1,0.1,2-0.6,2-0.6s1,0,1.1,0c0.2,0,0.6-0.8,0.6-0.8s-0.2-0.6,0.1-0.5
	c0.3,0.2,1,0.9,0.9,1c-0.1,0.1,0.4,0.9,0.3,1.2c-0.1,0.3,1.8,2.5,1.8,2.5s1-0.4,0.9-0.1c-0.1,0.3-0.3,1.3-0.3,1.3s0.6,0.4,0.8,0.4
	c0.2,0,0.9,1.4,0.9,1.4s-0.2,1.2-0.2,1.4s0.1,1.3,0,1.5c0,0.2,1.6,0.6,1.6,0.6S234,389.8,234.1,389.7z M116,330.5l1.3-1.1l0.3-1.1
	c0,0,1.2,0.2,1.3,0.4c0,0.2,0.3-0.4,0.6-0.1c0.3,0.3,0.7,0.2,0.8,0.5c0,0.2,0.3,0.5,0.3,0.4s0-0.7,0-0.7s-0.4-0.2-0.6-0.3
	c-0.2-0.1-0.2-0.5,0-0.6c0.2-0.1,0.8-0.4,0.9-0.3c0.2,0.1,0.9-0.2,0.9-0.2s0.1-0.2,0.2-0.4c0.1-0.1,0.5-1.2,0.5-1.2
	s-0.3-0.1-0.4-0.5c-0.1-0.4,0.4-1.4,0.6-1.4c0.1,0,1.7-1,1.7-1s0.6-0.6,0.4-0.8c-0.2-0.2-2-1.1-2-1.3s-0.2-1.2-0.1-1.6
	c0.1-0.4,0.8-1.2,1-1.3c0.1-0.2,1-1.2,1.2-1.2c0.2,0,0.8-0.1,0.9-0.2c0.2-0.1,1.6-0.7,1.3-0.8c-0.2,0,0.1-0.8,0-0.7
	c-0.1,0,0.1-0.9,0.4-1c0.3-0.1,0.8-0.4,0.9-0.4c0.1,0,1.1,0,1.3,0.1c0.2,0,1.1-0.4,1.2,0c0.1,0.4,0.4,0.4,0.2,0.6
	c-0.3,0.1-0.9,0.7-1.3,1c-0.4,0.4-1.6,1.2-1.8,1.2c-0.2,0-0.2,0.1-0.6,0.3c-0.3,0.2-0.3-0.3-0.4,0.5c-0.1,0.8-0.2,1.6,0,1.9
	c0.2,0.3,0.3,0.7,0.1,0.9c-0.2,0.2,0,0.3,0,0.7s0.5,0.5,0.6,0.7c0,0.2,0.7,0.5,0.7,0.5c0.3,0,0.7-0.1,0.8,0.1
	c0.1,0.2,0.2,0.1,0.2,0.1l0.7-0.2c0,0,0.7-0.4,0.9-0.4c0.2,0,0.6-0.1,0.8,0c0.3,0.1,1.5-0.3,1.6-0.3c0.2,0,1.3-0.4,1.4-0.3
	c0.1,0.2,0.7,0.1,0.7,0.1l0.5,0.4c0,0.2-0.5,0.8-0.6,0.9c-0.1,0.1-0.5,0.4-0.8,0.3c-0.2-0.1-0.4,0-0.7-0.1c-0.3-0.1-0.9-0.3-1.1-0.3
	c-0.2,0-2,0.4-2,0.4l-1,0.3l-0.2,0.6l0.1,0.1l1,0.6c0,0.2,0.4,0.1,0.3,0.6c-0.1,0.5-0.1,0.7-0.2,0.9c-0.1,0.2-0.6,0.7-0.7,0.4
	c-0.1-0.3-0.7-0.8-0.9-0.9c-0.2-0.1-0.6,0-0.9,0c-0.3,0-0.8,0.4-0.8,0.8c0,0.4-0.3,1-0.2,1.4c0.1,0.4,0.6,1,0.4,1.3
	c-0.2,0.3-0.8,0.5-1,0.6c-0.2,0.1-0.8,0.5-1,0.6c-0.2,0.1-0.8,0.3-0.9,0c-0.1-0.3-0.4-0.7-0.4-0.7s-0.2-0.4-0.3-0.3
	c-0.1,0.1-0.5,0.2-0.5,0.2l-1,0.4c0,0-0.6,0.4-0.7,0.5c-0.1,0.1-0.7,0.1-1,0.2c-0.2,0.1-1,0.7-1.2,0.4c-0.2-0.3-0.3,0.2-0.6-0.2
	c-0.2-0.4-0.2-0.9-0.4-0.8c-0.3,0.1-0.9,0.2-1,0.4c-0.1,0.2-0.2,0.2-0.3,0.3C117.1,330.5,116,330.6,116,330.5L116,330.5L116,330.5z
	 M149,360c-0.3,0.8-0.3,1.8-0.7,2.6c-0.4,0.8-0.6,1.2-0.9,1.7c-0.3,0.5-0.3,1.1-0.8,1.4c-0.5,0.3-1.2,0.7-1.6,0.4
	c-0.4-0.3-2.1-0.2-2.3-0.2c-0.2,0.1-2.2-0.1-2.4,0.4c-0.2,0.4-1.8,0.1-2,0c-0.2-0.1-3.2-1.3-3.4-1.4c-0.2-0.1-1.7-0.7-2-0.9
	c-0.2-0.2-1.7-0.4-1.8-0.5c-0.1-0.2,0.1-0.4-0.1-0.4c-0.2,0.1-2,0.6-2.2,0.8c-0.2,0.2-0.8,0.7-0.8,0.7s-0.7,0.7-0.7,1.3
	c0.1,0.5,0.7,1,0.5,1.3c-0.2,0.3-1.1,0.7-1.1,0.7s-0.9-0.8-1.2-1c-0.3-0.1-3.1-0.5-3.1-0.5l-1.1-1.3c0,0-1.8-1.2-2-1.3
	c-0.2-0.1-2.2,0-2.5-0.2c-0.3-0.2-1.3-1.5-1.7-1.4c-0.5,0.1-0.3-0.7-0.1-0.8c0.2-0.1,0.7-1.1,0.7-1.3c-0.1-0.2,0.3-1.2-0.3-1.5
	c-0.6-0.3-0.2-1.3-0.2-1.3s0.6-0.1,0.4-0.1s-1.1,0.1-1.4-0.2c-0.2-0.3-0.3-0.4-0.5-0.3c-0.2,0.1-1.7,0.4-1.9,0.3
	c-0.2-0.1-1.6,0.1-1.9,0.1c-0.2,0,0.1,0.1-0.2,0c-0.3-0.1-1.5,0.5-1.6,0.7c-0.1,0.2-1.3-0.1-1.4,0c-0.2,0.1-1.9,0.1-1.9,0.1
	l-2.9,0.5c0,0-1.9,1-2,1.3c-0.1,0.3-0.7,0.8-0.8,0.9c-0.2,0.1-1.3,0-1.3-0.2c-0.1-0.2-2,0.1-2,0.1s-0.8-0.4-1-0.2
	c-0.2,0.2-0.2-0.8-0.2-0.8l0.3-0.7l1.1-0.7l2.6-0.5l1.3-0.8l0.8-0.3l0.5-1.3c0,0,0.9-0.2,0.8-0.4c-0.1-0.2-0.3-1-0.3-1l1.7-2.7
	l2.4-1.2l0.4-0.8c0,0-0.2-1.1-0.1-1.3c0.2-0.2,1.8-0.5,1.8-0.5l2,0.7c0,0,1.1-0.7,1.3-0.8c0.2-0.1,1.4-0.8,1.4-0.8s0.1-0.5,0.4-0.5
	c0.2,0.1,1.3-0.2,1.4,0.3c0.1,0.5,1,2,1,2l1.4,1.4l1.3,1l1.6,0.6c0,0,1,0.8,1.1,0.9c0.2,0.1,1.1,1.1,1.1,1.1l0.5,0.8
	c0,0-0.3,0.7-0.5,1c-0.2,0.3-1,1.1-1.1,1c-0.2-0.1-1.6-0.3-1.6-0.3l-1.5,0.2c0,0-0.2,0.4,0.2,0.7c0.4,0.3,0.9,0.2,1.3,0.5
	c0.4,0.2,1.5,0.7,1.5,0.7s0.7,0.1,0.7,0.3c0,0.2,0.2-0.5,0.2-0.9c-0.1-0.4-0.1-1,0.3-1.1c0.4-0.1,1.1,0,1.1-0.2
	c0-0.2,0.2-0.4,0.2-0.4l0.5-0.7l-0.1-0.4l0.5-0.4c0,0-0.3-0.4-0.5-0.7c-0.2-0.3-0.5-0.5-0.3-0.8c0.2-0.3,0.8-0.7,1.1-0.5
	c0.3,0.2,1.2,0.4,1.1,0.7c-0.1,0.3,0,0.7,0.1,0.5c0.1-0.2,0.1-1.2,0.1-1.2s-0.5-0.7-0.9-0.7c-0.4-0.1-1.5-0.6-1.8-0.7
	c-0.3-0.1-0.8-0.4-0.8-0.4s0.2-0.7-0.1-0.6c-0.4,0.1-1.4-0.1-1.4-0.3c0-0.2-1.1-1-1.1-1.2c-0.1-0.2-1-1.5-1-1.5s-0.5-0.5-0.6-0.7
	c-0.1-0.2-0.1-0.5-0.2-1c-0.1-0.5,1.2-1.7,1.1-1.5c-0.1,0.2,0.3,0.4,0.5,1c0.2,0.5,1.2,1.4,1.3,1.8c0.1,0.4,1.4,1.4,1.7,1.5
	c0.3,0.1,0.5,0.5,1.1,0.7c0.6,0.2,0.5,0.4,1.3,0.7c0.8,0.4,0.9,0.5,1,0.7c0.1,0.2,0.6,0.1,0.8,0.4c0.2,0.3,0.4,0.4,0.4,0.7
	c0,0.3,0.2,0.3,0.1,0.9c-0.1,0.6-0.3,0.8-0.2,0.9c0.1,0.1,1.1,2.3,1.6,2.3c0.4,0,1.7,0.5,1.5,1.2c-0.2,0.7,0.8,1.7,0.8,1.7
	s0.8,0.1,1.4,0.1c0-0.4-0.1-1.1,0.4-1.3c0.5-0.3,1.3-0.6,1.2-0.9c-0.1-0.3-0.2-0.8-0.7-1.2c-0.5-0.4-1-0.5-1.1-1.1
	c-0.1-0.6-0.3-1.4,0.2-1.1c0.5,0.2,1,1.4,1.3,0.6c0.2-0.8,0.8-1.3,1.2-1.1c0.4,0.2,1.2,0.5,1.1,0.7c-0.1,0.2,0.5,2.2,0.5,2.2
	s0.2,0.2,0.4,1.1s0.9,1.1,0.8,1.4c-0.1,0.3-0.5,0.5,0.5,0.6c1,0.1,1.9,0.3,1.9,0.5c0,0.2,0.8,0.4,0.9,0.5c0.1,0.2,0.8,0.5,1,0.2
	c0.1-0.4,0.4-1.1,0.5-1c0.2,0.1,1.7,0.1,1.8,0.6c0.1,0.5,1.1,0.5,1.1,0.6c0,0.1,0.9-0.3,0.9-0.3s1.3-1,1.6-0.8
	c0.4,0.2,1.4-0.7,1.3,0.1C148.5,358.5,149.3,359.2,149,360z M154.9,349.5c-0.2,0.2-1.3,1.3-1.3,1.3l-2.3-0.3h-1.6l-1.3-0.5
	c0,0-0.9-0.3-1.1-0.5c-0.2-0.2-1.3-0.6-1.3-0.6l-2.4,0.5l-1.9,0.5l-0.7,0.6l-2.2-0.5l-1.3-0.7l-0.7-0.8h0.7l-0.2-1l0.1-0.7l0.6-0.4
	l0.4-1.7l0.7-0.3l0.2-0.9c0,0,0.6-0.5,0.8-0.7c0.2-0.2,0.8-1,0.8-1l1.4,0.6c0,0,1.5,0.2,1.3,0.2c-0.2,0.1-1,0.9-1,0.9
	s0.5,0.3,0.8,0.5c0.2,0.2,0.8,0.5,0.7,0.8c-0.1,0.4,0.9,0.3,0.9,0.3l0.4-0.6l1.7-0.4l0.6-0.3l-1-0.3c0,0-0.8-0.3-0.7-0.5
	c0.1-0.2,0.9-1.4,0.9-1.4s2-0.6,2.1-0.6c0.2,0,1.4-0.2,1.4-0.2s-1,1-1.1,1.1c-0.1,0.2,0.1,0.8-0.2,1c-0.3,0.2-0.7,0.5-0.9,0.5
	c-0.2,0.1-0.1,0.7,0.1,0.7c0.2,0.1,0.8,0.3,0.8,0.3l2.6,1.4l1.6,1.6l1.3,1C154.6,348.8,155.1,349.3,154.9,349.5z M170.1,357.4
	l-1.5,0.2c0,0-1.3-0.5-1.4-0.8c-0.1-0.2-0.4-0.8-0.5-0.7c-0.2,0.1-0.8,0.2-1,0.1c-0.2-0.1-0.8-0.6-0.8-0.8c0-0.2-0.2-0.8,0.1-1
	c0.3-0.2,0.9-0.7,0.8-0.8c-0.1-0.2-0.2-0.9-0.2-1.1c0-0.1,0-0.2,0.4-0.3c0.4-0.1,0.4-0.1,0.4-0.1s0.1-0.4-0.1-0.5
	c-0.2-0.2-1.3-1-1.4-1.1c-0.1-0.2-1.4-1.4-1.6-1.6c-0.2-0.2-1-0.7-1-0.7l-0.4-0.9l0.4-1.1l-1.1-0.2l-0.2-0.8v-0.2l1.1-1.3
	c0,0,0.8-0.4,1-0.3c0.2,0.1,0.6-0.4,0.7-0.5c0.1-0.2,1.2-1,1.4-1.1c0.2-0.1,0.7-0.7,0.9-0.4c0.2,0.3,1.7,0.8,1.7,0.8
	s0.5,0.1,0.5,0.4c-0.1,0.2-0.5,1.8-0.5,1.8s-1.1-0.3-1.2-0.2c-0.1,0.1-1,0.4-0.8,0.8c0.2,0.5-0.7,0.2-0.6,0.4
	c0.1,0.2,0.2,0.6,0.4,0.7c0.2,0.1,1.2,0.7,1.3,1c0.1,0.4,1.8,1.4,1.8,1.4s0.2,0.1,0.1,0.4c-0.1,0.2-0.2,1.5,0,1.5s0.6-0.1,0.6-0.1
	s0.5-1.1,0.7-1c0.2,0.1,0.9,0.7,1.1,1.1c0.2,0.4,0.5,0.8,0.4,1c-0.2,0.1-1,0.1-1.3,0.1c-0.2,0-0.7-0.3-0.8-0.2
	c-0.1,0.1-0.4,0.4-0.2,0.8c0.2,0.4,0.5,0.9,0.7,1c0.2,0.1,0.4,0.1,0.9,0.5c0.5,0.5,0.7,0.7,0.5,1.3c-0.2,0.5-0.1,1,0,1.2
	c0.1,0.2,0.2,0.6,0.3,0.8c0.1,0.2,0.1,0.4,0.1,0.4L170.1,357.4z M148.6,309.6C148.5,309.6,148.5,309.6,148.6,309.6
	C148.5,309.6,148.5,309.6,148.6,309.6z M293.7,322C293.7,322,293.7,322,293.7,322C293.7,322,293.7,322,293.7,322z M186,301.8
	C186,301.8,186,301.8,186,301.8c0-0.1,0-0.1,0-0.1C186,301.6,186,301.8,186,301.8z M169.1,435.3c0,0-1.3,1.4-1.4,1.7
	c-0.1,0.2-1.1,1.5-1.3,1.9c-0.2,0.4-1.4,1.3-1.4,1.3l-2.3,1c0,0-0.8,0.1-0.6,0.4c0,0-0.2,0.6-0.7,1.4c-0.6,0.7,0,1.7,0,1.7l0.3,1.6
	v1.5c0,0-0.5,1.7-0.7,1.8c-0.2,0.1-0.6,0.6-0.9,1.4c-0.2,0.8-0.2,1.4-0.2,1.4s0.2,1.2-0.1,1.4c-0.2,0.2,0.4,1.4,0.6,1.8
	c0.2,0.4,0.9,0.6,0.9,0.6s0.6,0.5,0.8,0.6c0.2,0.2,1.4-0.3,1.4-0.3s0.9-0.4,1.1-0.6c0.2-0.2,0.4-0.2,0.9-1c0.5-0.8,0.2-0.6,0.2-0.8
	c0.1-0.2,0.6-1.3,0.8-2.6c0.2-1.4,0.3-1.3,0.6-2.5c0.3-1.2,0.7-1.5,0.8-2.5c0.1-1,0.2-1.4,0.2-1.7c0.1-0.3,0.9-1.5,1-2.3
	c0.1-0.8,0.1-1.2-0.1-1.5c-0.2-0.3,1-0.1,1.1-0.6c0.2-0.5,0,0,0.1-0.2c0.1-0.2,0.2-1.8,0.2-2.6c0-0.9-0.9-2.2-1-2.5
	C169.5,434.7,169.1,435.3,169.1,435.3z M248.6,423.7c0.2-0.6,0-0.7-0.2-1c-0.2-0.3,0.3-1.8,1-2.3c0.6-0.6-0.3-0.6-0.3-0.6l-1,0.2
	l-0.9-1.7c0,0-1.5-1.2-2-1.5c-0.5-0.3,0.7-1,0.7-1s-2.7-2.5-3-2.5c-0.3,0-1.9-1.3-2.2-1.4c-0.2-0.1-1.5-2.2-1.5-2.2l-5.4-2.7
	c0,0-0.7,0.6-0.7,1c0,0.3,1,0.5,1,0.5s0.3,0.2,0.6,0.4c0.3,0.2,1.3,1,1.4,1.5c0.1,0.6,0.2,0.9,0.8,1.3c0.6,0.5,1.5,0.7,1.5,0.7
	s0.4,1.4,0.7,1.5c0.3,0.2,0.6,0.9,0.7,1.3c0.2,0.4,1.7,2.9,1.6,3.7c-0.1,0.9,1.1,3,1.1,3s2.7,2.1,2.8,2.5c0.1,0.3,2.1,0.9,2.1,0.9
	S248.4,424.4,248.6,423.7z M267.1,407.4c0-0.3-0.9-1-1.1-1.4c-0.2-0.3-1.7-1.6-2-1.8c-0.3-0.2,0,0-0.5,0.9c-0.5,0.9-1,1.9-1.3,2
	c-0.2,0.1-2,1.2-2.5,1.8c-0.5,0.6-1.4,2-1.7,1.8c-0.3-0.2-1.7,1-1.7,1l-0.7,1.8l-2.2-0.5l0.2,0.7c0,0-0.7,1.1-0.6,1.4
	c0.2,0.2,0,1.1,0.2,1.6c0.2,0.5,0.5,0.8,0.9,1.1s0.5,1.4,0.2,2.2s0.3,1,0.6,1.3c0.3,0.3,1,0.4,1.4,0.2c0.3-0.2,1-0.3,1.4-0.1
	c0.4,0.2,1.4,0.2,1.7,0.6c0.3,0.4,1.6,0.2,1.8,0.4c0.2,0.2,1.5-0.2,1.8-0.6c0.3-0.3,0-0.9,0-2c0-1,0.2-1,0.7-1.4
	c0.6-0.4,1-0.7,1-1.3c0.1-0.6,0.2-1.5,0.2-2s1.3-0.4,1.5-0.6c0.2-0.2-0.2-0.5-0.2-0.7c0-0.2-1-1.4-1.3-1.8c-0.2-0.4,0.4-2.4,0.8-2.7
	C266.4,409,267.1,407.7,267.1,407.4z M256,428.8c0.2,0.1,0.8,0.1,2,0.4c1.2,0.3,2.3,0.4,2.5,0.7c0.2,0.3,1.2,0,1.7-0.1
	c0.5-0.1,1.6-1.1,2.3-0.3c0.7,0.8,2.1,0.2,2.4,0.4c0.2,0.2,1-0.4,1.8-0.3c0.9,0.1,1,0.3,1.2,0.3s1,0.2,1.4,0.2
	c0.4-0.1,0.9-0.6,1.6-0.5c0.7,0.1,2.6-0.6,2.6-0.6s0,0.1-0.5,0.4c-0.5,0.3-2.1,1.5-2.1,1.5s-0.2-0.2-0.3,0.3c-0.1,0.5-0.6,1.4-0.1,1
	c0.5-0.4,2.2-1.8,2.6-2.1c0.4-0.3,0.6-0.5,1-0.7c0.4-0.2,1.3-0.5,1.3-0.5l0.6-0.4c0,0-0.5-0.3-0.7-0.2c-0.2,0.1-0.6-0.3-1.2-0.1
	c-0.6,0.2-2.1,0.5-2.1,0.5s-1,0.2-1.5-0.1s-1.2-0.6-1.4-0.3c-0.2,0.3-1.6,0.7-1.8,0.7c-0.2,0-1.1-0.1-1.8-0.2
	c-0.6-0.2-0.8-0.2-1.1-0.2s-0.3-0.2-1.2-0.3c-0.9-0.1-1.1-0.3-1.4-0.2c-0.2,0.1-0.6,0.2-1,0.3c-0.3,0.2-1.3,0.2-1.5-0.1
	c-0.2-0.2-2.6-0.7-2.6-0.7s-0.3-0.4,0.4-0.6c0.7-0.2,0.6-0.2,0.5-0.6c-0.1-0.3-1.3-0.3-1.6-0.2c-0.3,0.1-1.1,0.2-1.4-0.1
	c-0.3-0.3-1.3-1.1-1.6-0.6c-0.3,0.5-0.2,1.1-0.5,1c-0.3-0.1-2.5,0.2-2.5-0.1c0-0.2-0.6-0.9-0.8-1c-0.2-0.1-0.2-0.3-0.6-0.5
	c-0.4-0.2-1.2,0.1-1.2,0.1l-0.8,0.1l-1,1.1c0,0,2.2,0.2,2.5,0.6c0.2,0.3,1.4,1.3,1.4,1.3s1.6,0.4,2,0.5
	C253.9,428.7,255.7,428.7,256,428.8z M253.4,384.1c-0.2-0.2-0.9-0.2-0.9-0.2l-0.8,0.3l-0.4-0.2l-0.9,1.2c0,0,0.2,1.4,0.5,1.4
	s1.1,0,1.1,0l0.9-0.6l0.5-1.2C253.4,384.9,253.6,384.3,253.4,384.1z M266.3,381l0.5-1c0,0,0.2-1,0.3-1.2c0.1-0.2,0.4-1,0.2-1.4
	c-0.2-0.4-0.1-1-0.2-1.3c-0.2-0.3-0.2-0.8-0.2-0.8l-0.8,0.3c-0.3,0.3-0.8,1.8-0.8,1.8s-0.3,1.4-0.1,1.8c0.2,0.3,0.9,1.2,0.9,1.2
	L266.3,381z M276.3,404.9c0.7,0.2,1,0.1,0.9-0.2c-0.1-0.3-0.3-2-0.5-2.6c-0.2-0.6,1-1.1-0.2-2.1c-1.2-1-1.1-0.9-1.2-1
	c-0.1-0.1-0.1-0.9-0.1-0.9s0.2-0.8,0.1-1c-0.2-0.2-0.3-0.7-0.5-1c-0.2-0.2-0.2-0.3-0.6-0.3c-0.5,0-0.5-0.6-0.8-0.5
	c-0.3,0.1-1.1,0.7-0.6-0.2c0.6-1,0.2-1.1,0.2-1.3c0-0.2-0.4-0.4-0.8-0.5c-0.4-0.1-0.7-0.6-1.3-0.4c-0.6,0.2-0.8-0.2-1.1-0.2
	c-0.3,0-0.5-0.4-0.6-0.9c-0.1-0.5,0.1-1.4,0.1-1.7c0-0.2,0.5-1,0.5-1s0.2-0.3,0-0.9c-0.2-0.6-0.5-1.5-0.5-1.9c0-0.4-0.9-0.8-0.9-0.8
	l-1,0.4l-0.4,3.5c0,0-0.7,0.2-0.6,0.6c0.1,0.3,0.1,1.8,0.5,2.2c0.4,0.3,1,0.7,1,0.7c0.2,0.4-0.2,1.2-0.2,1.2s1,1.1,1,1.4
	c0.1,0.3,0.6,0.2,0.6,0.2s-0.2-2.1,0.2-1.8c0.5,0.4,1.8,0.3,1.8,0.8c0.1,0.5,1,1,1.1,1.4c0.2,0.5,1.2,0.6,1.1,1
	c-0.1,0.4-0.7,0.4-1.1,0.5c-0.4,0.1-1.7-0.9-1.7-0.9s-0.3-0.1-0.4,0.4c-0.1,0.5,0.2,1.7,0.5,2.1c0.3,0.4,0.6,0,0.8,0.2
	c0.2,0.2,0,0.8,0.2,1.1c0.2,0.3,0.9,0.4,1.1,0.2c0.2-0.2,1-0.6,1-0.6s-0.1-1-0.4-1.1c-0.3-0.2-0.8-0.6-0.6-0.9
	c0.2-0.2,0.7-0.7,1-0.6c0.2,0.1,0.8,1.1,0.7,1.4c-0.1,0.2,0,0.3,0.3,1.2c0.3,0.9,0.5,0.7,0.1,0.9c-0.4,0.2-0.8,0.6-1,0.8
	c-0.1,0-0.1,0.1-0.1,0.1c-0.1,0-0.2,0-0.6-0.1c-1-0.1-0.8-0.6-1-0.1c-0.2,0.5-0.5,0.9-0.5,0.9l-0.6,0.2c0,0-0.4,1.3-0.3,1.7
	c0.1,0.4,0.1,0.4,0.1,0.4s0.8-1.5,1-1.5c0.2,0,0.2,0.4,0.6,0.2c0.3-0.2,0.6-0.1,0.6-0.1s0.5-0.2,0.4,0.4c-0.1,0.6-0.1,0.7,0.2,1.4
	c0.2,0.6,0.9,1,1.1,1.2c0.2,0.2,0.6,0.4,0.7,0.6c0.2,0.2,0.2-0.7,0.2-1.4C275.9,405.2,275.6,404.7,276.3,404.9z M270.7,414.6
	c0.9,0.5,1.4,0.7,2.1,1c0.7,0.2,1.4-0.5,1.6-0.3c0.2,0.2,0.9-0.6,0.9-0.6s0.6-0.8,0.5-1c-0.1-0.2-0.2-1-0.3-0.7
	c-0.2,0.2-1.7,1.1-2,1.2c-0.3,0.1-1.1-0.2-1.8-0.2c-0.7,0-2.5-0.6-2.7-0.3c-0.2,0.2-1,1.2-0.9,1.6c0.1,0.4,0,0.6,0,0.9
	c0,0.2-0.2,1.4-0.2,1l-1.1,2.9c0,0,0.9,2.2,0.8,2.6c-0.1,0.4-0.2,2.6,0,2.4c0.2-0.2,1.4-0.4,1.4-0.4s0.4-1.4,0.3-2.1
	c-0.1-0.6-0.8-2.6-0.2-2.5c0.6,0.2,1.3,1,1.3,1s-0.5,0.5-0.3,0.8c0.2,0.3,0.7,0.7,0.6,1.4c-0.1,0.7,0.2,1,0.2,0.8
	c0-0.2,0.8,0.2,0.9,0.3c0.1,0.1,0.8-0.5,0.9-0.5c0-0.2,0.1-1.2-0.1-1.5c-0.2-0.3-0.2-0.8-0.8-1.4c-0.6-0.6,0.2-0.8-0.4-1.5
	c-0.6-0.7-0.8-0.5-0.6-0.7c0.2-0.2,0.7-0.4,1.1-0.6c0.4-0.2,0.7-0.9,0.7-0.9c0.1-0.2,0.2-0.2-0.4-0.3c-0.6-0.2-1.2-0.3-1.6,0.2
	c-0.4,0.5-0.8,0.6-0.8,0.6s0,0-0.3,0.1s-0.2-0.5-0.5-0.6c-0.2-0.1-0.2-0.2-0.4-0.7c-0.2-0.6,0-1.4,0.2-1.6
	C269.3,414.7,269.8,414.1,270.7,414.6z M272.8,423.9C272.8,423.9,272.8,423.9,272.8,423.9C272.8,423.9,272.8,423.9,272.8,423.9z
	 M304,423.9c-0.1-0.5-0.2-1-0.4-1.4c-0.2-0.4-5.4-3.1-6.1-3.3c-0.6-0.2-4-1.3-4-1.3s-1.6,0.6-1.6,0.9c0,0.2-0.8,1.1-1.1,1.4
	c-0.3,0.3-0.2,0.6-0.7,0.6c-0.5-0.1-0.6,0-0.8-0.2c-0.2-0.2-0.5-1-0.8-1.3c-0.3-0.2-1-0.6-0.8-1.2c0.2-0.6,0.4-1.5-0.1-1.5
	s-1.2,0.3-1.4,0.1c-0.2-0.2-1.1-0.2-1.1-0.2l-2,0.6L283,417c0,0,0.9,1.7,1.4,1.5c0.6-0.2,1.6,1.1,1.6,1.1s-0.3,0.7-0.2,1
	c0.2,0.2,0.8,1.4,0.8,1.4l1.3-0.1l1.3,0.6l3.4,1.1l1,1.1l0.6,2.4c0,0-1.4,1-1.4,1.4c0.1,0.4,1.8-0.1,1.8-0.1l1.4,0.7l1.7,0.9l2,0.1
	l1.2-1.4c0,0,1.8-1.5,1.8-1.2c0,0.3,1.6,1,1.8,1.7c0.2,0.7,1.7,2,1.7,2s2,0.6,2.2,0.7c0.2,0.1,0.8,0.2,1.4,0.3
	c0.6,0.2-0.6-1.4-0.6-1.4s-1.8-1-1.8-1.4c-0.1-0.4-1.5-1.6-1.4-2c0.1-0.4-0.6-0.9-0.3-0.9c0.3,0,1.6-0.2,1.4-0.4
	c-0.2-0.2-1-1.8-1.4-1.8C305.3,424.4,304.1,424.4,304,423.9z M306.7,450.8c0,0-0.9-0.4-1-0.2c-0.1,0.2-0.4-1.5-0.4-1.5l0.2-0.9
	c0,0-2.4-3-2.5-2.8c-0.1,0.2-0.9-2.5-0.9-2.5l-0.2-2.9l-0.6-1.8l-1.4,0.2l-0.3-2.9l-0.8-2.7l-0.4-0.2l-0.8,1.8c0,0-0.4,2.6-0.6,3.4
	c-0.2,0.9-0.2,2.2-0.7,2.9c-0.5,0.8-1.6,2.7-1.6,2.7s-1.3,0-1.4-0.2c-0.2-0.2-1.6-1-1.6-1l-0.9-1.4l-1.4-1.1c0,0-1-1.2-1-1.1
	c-0.1,0.1,0.7-1.1,1-1.3c0.2-0.2,0.3-1,0.3-1l1.3-1c0,0,0.2-0.4,0-0.6c-0.2-0.2-0.2-0.6-0.6-0.7c-0.3-0.1-2.2,0.8-2.2,0.8l-1.5-0.7
	c0,0-1.1-0.6-1.4-1c-0.2-0.4-0.9-0.6-1-0.5c-0.2,0.2,0,1,0,1s0.3,0.7,0.4,0.9c-0.1-0.1-0.7,0.3-0.7,0.3l-1.5,0.2l-1,0.9l-0.7,1.4
	l-0.5,1c0,0,0.4,0.6,0.2,0.6c-0.2-0.1-2.3,0.6-2.3,0.6s-0.6-1.2-0.8-1.4c-0.2-0.2-1-0.6-1.3-0.6c-0.3,0-1.1,0.7-1.1,0.7l-0.3,1.7
	l-1.2-0.3l-1,1.8l-1,0.4l-0.6,1.2l-0.3-1.3l-1.2,1.1l-0.4,1.8c0,0-1.5,1.4-1.7,1.8c-0.2,0.3-3.5,1.5-3.5,1.5l-2.1,0.7
	c0,0-1.1,0.2-1.4,0.2c-0.2,0-2.3,1.5-2.3,1.5l-0.7,0.7l-0.2-0.6l-0.9,1v2l-0.9,1.2l0.5,1.8l-0.7,0.2l-0.6,0.5l0.7,1.4l0.2,2.6
	c0,0,0.4,0.8,0.3,1.3c-0.1,0.5-0.4,1-0.4,1.3s0.2,1.5,0.2,1.8c0,0.3-0.7,2.4-0.7,2.4l-0.9,1.4l-0.7,0.1c0,0,0.2,1.5,0.4,1.5
	c0.2,0,1,0.3,1.6,0.6c0.6,0.2,1.7-0.2,1.9-0.2c0.2-0.1,2-1,2-1s1-0.7,1.4-0.6c0.3,0.1,1.8-0.2,2,0c0.2,0.2,2.1,0.1,2.1,0.1l1.1-1.2
	l3-1.4l1.5-0.2l3.7-1l3.1,0.3c0,0,2.6,1.9,2.6,1.8c0-0.2,0.6,1,0.6,1l-0.2,1.5c0,0,0.9,0.7,1,0.5c0.1-0.2,1-1.2,1.2-1.4
	c0.2-0.2,1-0.6,1.5-1c0.6-0.4,0.7-0.6,0.7-0.6s-0.6,1.6-0.8,1.6c-0.2,0-0.7,0.5-1,0.8c-0.2,0.3-0.6,0.6-0.6,0.7c0,0.2,0.5,0.2,0.7,0
	c0.2-0.2,0.6-0.6,1-0.8c0.3-0.2,0.5-0.1,0.4,0.3c-0.1,0.4-0.1,0.8-0.4,1c-0.3,0.2-0.7,0.4-1.3,0.7c-0.6,0.3-1,0.1-1.2,0.3
	c-0.2,0.2,0.2,0.5,0.3,0.6c0.2,0.2,0.6,0.6,0.9,0.1c0.3-0.6,0.7-1,1-1.1c0.2-0.2,0.7-0.6,0.7-0.2s0.2,0.8,0.3,1.1
	c0.1,0.3-0.6,1-0.5,1.1c0.1,0.2,0.9,1.9,0.9,1.9s0.5,0.6,1,0.6c0.6,0,1.8,0.4,2,0.5c0.2,0.1,1.4,0,1.5-0.3c0.2-0.3,1.1-1,1-0.7
	c-0.1,0.2,0.1,0.7,0.3,1s0.6,0.9,0.6,0.9l2.9-2.3c0,0,2.2-0.5,2.3-0.2c0.1,0.2,1.5-1.6,1.5-1.6l4.5-5.6l1.8-1.2l1.3-1.8l1.8-3.2
	l1-3.6l0.7-2.7l-1.8-2.6L306.7,450.8z M289,480.5c0,0-1.1-0.7-1.3-1v-0.2l-0.8,2.5l-0.7,2.6c0,0,1.4,0.2,1.6,0.2
	c0.2,0.1,2.6-1.4,2.6-1.7c0.1-0.3,1.7-2.9,1.7-2.9S289.6,480.6,289,480.5z M332.2,475.9l-0.8-0.8c0,0,0.1-1.1-0.2-1.1
	c-0.2,0-0.6,0.1-0.6,0.1l0.4-2.8l-1.4-0.9l-0.3,4.3l-1,2.4l-2.1,0.8c0,0,0.9,0.9,1.2,0.9c0.3,0-0.2,1-0.2,1l-1.4,1.2
	c0,0-0.5-0.2-0.5-0.9c0-0.6-1.3,0.6-1.3,0.6l-0.9-0.6l-2.4,2.1l-3.3,1.7l-7.6,4.7l1,0.6c0,0,1,0.4,1,0.6c0.1,0.2,2.4-1,2.4-1
	l2.6-1.9l1.3-1.1c0,0,2.3-0.6,2.2-0.3c-0.1,0.3,0.7-1.5,0.7-1.5l2.2-1.2l1.4-1.4l1.1,0.3l1.6-0.6l2.7-1.8l0.5-1.4l0.9,0.1l1.7-1.2
	l1.1-1.9L332.2,475.9z M11.2,301.2c0.6,0.2,1,0.3,2.4,0.4c1.4,0.1,1.5-0.1,2.2,0.2c0.6,0.2,1.2,0.6,1.4,0.1c0.2-0.6,0.6-0.6,0.8-0.9
	c0.2-0.3,0-0.6,0.4-0.8c0.4-0.2,1.1,0.6,1.1,0.6s-0.9,0.6-0.5,0.6c0.4,0.1,1.5,0.3,2.1,0.4c0.6,0.1,0.1,0.2,1,0.3
	c1,0.1,1.4-0.1,2.5-0.1c1.2,0,1.9-0.6,2.3-0.4c0.4,0.2,1.8,0.2,2.1,0.1c0.4-0.1,1.4-1,1-1s-1.9-0.4-2.5-0.5
	c-0.6-0.1-2.6-0.2-3.1,0.1c-0.5,0.2-1,0.4-1.4,0.2c-0.3-0.2,1.4-1.4,2.5-1.3c1.1,0.2,2.8-0.2,3.3-0.1c0.6,0.1,1.9,0.3,1.9,0.3
	s0.3-0.2,0.4-0.4c0.1-0.2,0.2-0.5,0.2-0.5l0.8,0.7c0,0,5.3-2.1,5.5-2.5c0.2-0.4,3.6-1.4,4.1-1.4c0.5,0.1,3.7-1.4,4.3-1.1
	c0.6,0.2,3.5-0.7,3.5-0.7s2.2-0.5,2.6-0.5c0.5,0,0.7-0.6,0-0.5c-0.7,0.1-6.7,0.1-8.1,0c-1.4-0.1-4.9,0-5.5,0.1
	c-0.6,0.1-3.7,1-5.1,0.9c-1.4-0.1-5.7,0.6-6,0.5c-0.2-0.1-2-0.2-1.8-0.2c0.2,0-2.3,2-2.7,1.4c-0.4-0.6,0-1-0.4-0.6
	c-0.4,0.4-0.3,2.2-0.3,2.2c0.5,0.3,1.5,1.4,2.2,1c0.7-0.5,1.1-0.2,1.4-0.2c0.2,0.1-1.1,1.1-1.9,1.1c-0.8,0-3.3,1-3.3,1
	s-1.1-1-1.4-1.1c-0.2-0.1-1.6-0.2-1.8-0.2c-0.2,0-0.6-0.2-0.6,0.5s0.1,1.8-0.7,1.7c-0.8-0.2-1,0.2-1.4-0.1c-0.4-0.2,0.6-1.4-0.6-1.5
	c-1.1-0.1-1.8-0.9-2.4,0.4C10.9,301,10.5,301,11.2,301.2z M-17.7,306.1c-0.2,0.4,2.1,0.6,2.2,0.2c0.2-0.3,1.6-0.1,1.9-0.6
	c0.3-0.5,1.9-1.4,2.1-1.3c0.2,0.2-0.5,1-0.7,1c-0.2,0.1,0.8,0.2-0.2,1c-1,0.8-0.8,1.5-0.8,1.5s-0.9,0.4-0.2,0.6s1.8,0.7,1.8,0.7
	s0.1,0.6,0.1,0.7c0,0.2,0.4,0.6,1.3,0.1c0.9-0.6,2.6-1.2,2.9-1c0.2,0.2,0.8-0.1,1.6-0.2c0.8-0.1,1.4-0.3,1.4-0.3l1,0.2
	c0.5,0.2,0.9-0.3,1.7,0.2c0.8,0.5,1.9,0.5,1.9,0.5s1.1-0.9,1.4-1c0.2-0.1,0.7-0.2,0.5-0.7c-0.2-0.6-1.1-1.4-0.9-1.6
	c0.2-0.2,0.8-0.3,0.7-1.8c-0.1-1.5,0.2-1.3-0.2-1.2c-0.4,0.1-1.4,0.6-1.4,0.6l-0.3-0.1c-0.2,0.5-0.9,0.8-1,1.3
	c-0.2,0.5-0.6,0.7-0.6,0.3s-0.6-0.5-0.6-0.8c-0.1-0.3-0.8-0.2-1.2-0.2c-0.4,0.1-1.5-0.7-1.9-0.4c-0.4,0.3-0.8-0.2-1.1-0.9
	c-0.3-0.7-0.7-1.3-1.2-1.2c-0.5,0.1-3.4,0-3.4,0l-1.8,0.2c0,0-1,0.2-1,0.7c0,0.5-0.2,0.8-0.6,1c-0.5,0.2-4,1.4-4,1.4
	S-17.4,305.7-17.7,306.1z M7.3,304.2l-0.9-0.2c0,0-0.1-0.6-0.3-0.6c-0.2,0-1,0.9-1,0.9s1,0.4,1.2,0.7s0.6,0.7,0.6,1
	c0,0.2,2.6-0.8,2.6-0.8l1.4-0.7c0,0,0.1,0.2,0.2-0.2c0.1-0.4-0.2-0.7,0-0.8c0.2-0.1,0.8-1.1,0.2-1c-0.6,0.2-2,0-2.6,0.2
	c-0.6,0.2-1.4-0.3-1.4,0.3C7.4,303.7,7.3,304.2,7.3,304.2z M-5.4,300.6c0,0,0.3,1.4,1,1c0.6-0.4,2.5,1,2.5,1.1
	c0,0.2,0.6,0.1,0.6,0.1l2.8-1l1.6-0.2c0,0,1.5-0.1,1.7,0.1c0.2,0.2,1.4-0.4,1.4-0.4l0.5-0.8l-1-0.3l0.2-0.8c0,0-0.3-0.5-1,0.1
	c-0.7,0.6-2.7,1.7-2.6,1.4c0.2-0.2-0.8,0.1-1.2-0.4c-0.4-0.5-1-0.6-1-0.6s-1.1-0.4-1.5-0.2c-0.4,0.2,0.7-0.8,0.7-0.8
	s0.2-0.9-0.2-0.8c-0.5,0.1-4.4,1-4.4,1s-1.7,1-2,0.7c-0.3-0.2-1.5,0.2-1.5,0.2l0.8,0.5C-7.8,300.1-5.4,300.6-5.4,300.6z M12.4,297.3
	c0.2,0.1,2.2,0.6,2.4,0.7c0.2,0.1,1,0.2,1.3,0.2c0.3-0.1,1.6-0.7,1.1-1c-0.5-0.2-2-0.6-2.3-0.7c-0.3-0.2-1.5-0.2-1.5-0.2l-0.7,0.2
	C12.4,296.7,12.1,297.2,12.4,297.3z M4.7,298.7c0.3-0.2,1.4-0.6,1.4-0.6l1-0.8l0.3-0.4c0,0-0.7-0.6-1-0.4c-0.3,0.2-2,1-2,1l-0.1,0.6
	L3,298.5C3,298.5,4.4,298.8,4.7,298.7z M19.1,298.4c0.3,0.1,1.3,0.1,1.4-0.2c0.1-0.2-0.1-1.9-0.1-1.9s-0.3-0.5-0.7-0.4
	c-0.4,0.1-1.7,0.7-1.7,0.7C17.9,296.9,18.7,298.3,19.1,298.4z M-1.1,383.3c-0.1-0.2-1-0.5-1.4-0.5c-0.5,0-2.2-1.7-2.3-2
	c-0.1-0.4-4-1.3-4-1.3s-4.2-0.2-4.2-0.4c0-0.1-2,1.6-2,1.6v0.2c0,0,0.2,0.8,0.2,1c0.1,0.2,1.4-1,1.5-1.4c0.1-0.5,1.1-0.6,1.3-0.7
	c0.2-0.1,0.4,0.5,0.6,0.5c0.2,0,1.3,0.4,1.3,0.4l2.2,0.7l0.8,0.8c0,0,0.4,1.9,0.4,2.2c0,0.2,1.6,0.1,1.6,0.1l3.2-0.3
	C-2,384.1-1,383.5-1.1,383.3z M-1.2,387.3c0.3,0.1,0.8-0.1,1-0.1s1-0.2,1-0.2s0.2,0.5,0.2,0.7c0,0.2,1.3-0.1,1.3-0.2
	s0.3-0.7,0.3-0.7l1.5-0.3c0,0,2,0.1,2.2,0.1c0.2,0,0.3-0.4-0.1-1c-0.4-0.7-1.4-0.8-1.6-1.3c-0.2-0.5-1.4-0.2-1.7,0
	c-0.3,0.2-2-0.4-2.4-0.4c-0.5,0,0,0.5,0,0.5l-0.2,1.7h-2l-0.1,0.2c0,0-0.5,0.2-0.5,0.5C-2.2,387.3-1.5,387.2-1.2,387.3z"/>
<ellipse class="st1" cx="-52.4" cy="359.6" rx="5.3" ry="5.3"/>
<ellipse class="st1" cx="5.2" cy="351.2" rx="5.3" ry="5.3"/>
<ellipse class="st1" cx="101" cy="333.8" rx="5.3" ry="5.3"/>
<ellipse class="st1" cx="27.7" cy="433.2" rx="5.3" ry="5.3"/>
<ellipse class="st1" cx="322.1" cy="482" rx="5.3" ry="5.3"/>
</svg>
